<?xml version="1.0" standalone="no"?>
<!DOCTYPE svg PUBLIC "-//W3C//DTD SVG 20010904//EN"
 "http://www.w3.org/TR/2001/REC-SVG-20010904/DTD/svg10.dtd">
<svg version="1.0" xmlns="http://www.w3.org/2000/svg"
 width="512.000000pt" height="512.000000pt" viewBox="0 0 512.000000 512.000000"
 preserveAspectRatio="xMidYMid meet">
<metadata>
Created by potrace 1.15, written by Peter Selinger 2001-2017
</metadata>
<g transform="translate(0.000000,512.000000) scale(0.100000,-0.100000)"
fill="#000000" stroke="none">
<path d="M2210 4719 c-176 -21 -412 -82 -565 -146 -144 -60 -383 -192 -418
-231 -23 -25 -89 -179 -132 -309 -143 -427 -137 -808 18 -1085 69 -124 52
-125 205 13 l132 121 0 414 0 414 -50 0 -50 0 0 95 0 95 320 0 320 0 0 -95 0
-95 -50 0 -50 0 0 -220 0 -219 422 374 422 375 30 -28 c17 -16 353 -307 746
-648 393 -340 885 -766 1093 -947 209 -181 380 -327 381 -325 2 2 -31 67 -73
145 -66 124 -88 154 -167 235 l-90 93 -13 95 c-51 379 -221 774 -466 1080 -80
100 -230 248 -335 332 -293 234 -613 379 -989 450 -122 23 -511 33 -641 17z"/>
<path d="M2575 3503 c-155 -141 -206 -187 -733 -657 -172 -153 -312 -282 -312
-286 0 -9 189 -89 305 -129 50 -16 204 -64 344 -106 544 -163 793 -282 997
-477 173 -165 256 -344 284 -612 22 -215 -37 -486 -146 -670 -19 -32 -33 -60
-32 -62 8 -7 180 76 283 136 498 291 855 749 1016 1302 13 43 21 79 18 81 -2
2 -76 66 -164 143 -600 521 -1698 1469 -1703 1471 -4 1 -74 -59 -157 -134z
m143 -565 l-3 -123 -95 -3 c-149 -5 -140 -13 -140 128 l0 120 120 0 121 0 -3
-122z m342 2 l0 -120 -125 0 -125 0 0 120 0 120 125 0 125 0 0 -120z m-340
-325 l0 -125 -120 0 -120 0 0 120 0 119 118 4 c64 1 118 4 120 5 1 1 2 -54 2
-123z m340 -5 l0 -120 -125 0 -125 0 0 120 0 120 125 0 125 0 0 -120z"/>
<path d="M2789 1196 c-54 -19 -95 -51 -113 -90 -48 -103 21 -198 164 -226 102
-20 121 -38 79 -76 -14 -13 -36 -19 -66 -19 -40 0 -48 5 -88 48 -60 64 -115
63 -115 -3 0 -66 75 -111 198 -118 97 -5 154 12 212 64 93 85 69 226 -42 249
-79 16 -167 48 -172 61 -8 21 10 51 35 59 11 4 36 4 55 0 27 -5 38 -14 54 -45
24 -46 47 -62 72 -49 22 12 26 100 6 117 -22 17 -133 42 -189 42 -30 -1 -70
-7 -90 -14z"/>
<path d="M1457 1193 c-13 -12 -7 -44 8 -49 13 -5 15 -35 15 -185 0 -150 -2
-181 -15 -185 -18 -7 -20 -35 -3 -52 19 -19 212 -16 232 4 21 20 20 27 -4 49
-16 14 -20 31 -20 82 0 34 4 63 9 63 15 0 96 -133 83 -138 -24 -8 -33 -40 -16
-56 22 -23 367 -22 389 1 20 19 19 26 -5 48 -21 19 -25 70 -12 169 l7 50 34
-88 c44 -114 69 -150 105 -154 41 -5 57 16 101 132 24 63 42 100 47 93 4 -7 8
-50 8 -95 0 -68 -4 -89 -19 -109 -23 -28 -18 -51 13 -59 11 -2 63 -4 115 -2
75 2 96 6 105 20 8 13 6 22 -11 40 -19 21 -22 40 -28 186 -7 146 -6 165 10
182 9 10 15 27 13 37 -3 16 -16 18 -105 21 -119 3 -107 13 -158 -137 l-31 -95
-40 114 -39 115 -115 0 c-105 0 -115 -2 -118 -19 -2 -11 5 -26 16 -35 18 -15
19 -25 14 -178 -3 -99 -9 -169 -16 -178 -15 -21 -38 -11 -61 27 -10 18 -47 69
-81 114 l-62 82 74 77 c44 45 74 84 72 93 -5 26 -173 31 -182 6 -4 -11 2 -26
16 -42 l23 -24 -46 -41 c-26 -23 -60 -50 -78 -60 l-31 -18 0 62 c0 49 4 67 20
84 12 13 18 29 14 38 -5 15 -23 17 -123 17 -65 0 -121 -3 -124 -7z"/>
</g>
</svg>
